<?xml version="1.0" encoding="utf-8"?>
<!-- Generator: Adobe Illustrator 16.0.0, SVG Export Plug-In . SVG Version: 6.00 Build 0)  -->
<!DOCTYPE svg PUBLIC "-//W3C//DTD SVG 1.1//EN" "http://www.w3.org/Graphics/SVG/1.1/DTD/svg11.dtd">
<svg version="1.1" id="Layer_1" xmlns="http://www.w3.org/2000/svg" xmlns:xlink="http://www.w3.org/1999/xlink" x="0px" y="0px"
	 width="398.665px" height="400px" viewBox="0 0 398.665 400" enable-background="new 0 0 398.665 400" xml:space="preserve">
<g>
	<path fill="#FFFFFF" d="M208.324,275.039c-1.406,0-2.744-0.804-3.365-2.163c-0.844-1.857-0.024-4.047,1.832-4.891L233.36,255.9
		c1.86-0.854,4.043-0.021,4.89,1.832c0.844,1.857,0.025,4.046-1.832,4.89l-26.568,12.085
		C209.355,274.935,208.833,275.039,208.324,275.039"/>
	<path fill="#FFFFFF" d="M198.904,320.696c-16.699-0.654-29.844-11.434-37.031-24.827c0.397,1.012,0.836,2.098,1.288,3.151
		c0.786,1.812,1.669,3.524,2.425,4.733c0.748,1.216,1.327,1.963,1.327,1.963s-0.733-0.589-1.758-1.624
		c-1.031-1.025-2.316-2.547-3.514-4.197c-0.8-1.109-1.576-2.252-2.257-3.284c0.45,1.154,0.971,2.439,1.522,3.706
		c0.832,1.894,1.794,3.73,2.635,5.046c0.832,1.321,1.487,2.147,1.487,2.147s-0.81-0.668-1.918-1.809
		c-1.116-1.132-2.48-2.777-3.725-4.509c-0.831-1.168-1.626-2.345-2.318-3.396c0.462,1.174,1.001,2.494,1.584,3.82
		c0.878,1.973,1.919,3.933,2.845,5.355c0.915,1.428,1.648,2.332,1.648,2.332s-0.887-0.747-2.078-1.993
		c-1.005-1.037-2.174-2.448-3.287-3.94c8.719,13.569,23.041,24.007,40.836,24.705c0.051,0.003,0.098,0.003,0.148,0.003
		c1.973,0,3.61-1.559,3.686-3.55C202.529,322.493,200.942,320.775,198.904,320.696"/>
	<path fill="#FFFFFF" d="M286.144,163.046c-0.971-1.789-3.21-2.46-5.01-1.475c-1.789,0.974-2.452,3.217-1.475,5.009
		c0.032,0.058,3.242,6.268,1.038,13.405c-1.803,5.843-6.708,10.852-14.58,14.888c-10.672,5.467-23.334,7.833-36.742,10.339
		c-13.323,2.492-27.099,5.071-40.673,10.888c-28.881,12.385-43.068,34.547-39.956,62.409c0.612,5.482,2.147,11.041,4.476,16.361
		l1.507-0.75l3.143-1.562l1.945-0.966c-1.932-4.527-3.208-9.249-3.728-13.905c-1.926-17.226,2.672-40.714,35.523-54.801
		c12.824-5.496,26.192-7.995,39.119-10.412c13.948-2.61,27.127-5.073,38.754-11.031c9.712-4.977,15.856-11.464,18.27-19.283
		C290.9,171.968,286.341,163.407,286.144,163.046"/>
	<path fill="#FFFFFF" d="M269.549,289.603c-1.343,1.847-3.014,3.29-4.28,4.208c-1.282,0.927-2.105,1.388-2.105,1.388
		s0.7-0.645,1.739-1.794c1.022-1.141,2.293-2.82,3.143-4.705c0.357-0.748,0.591-1.587,0.753-2.42
		c-0.402,0.776-0.877,1.558-1.438,2.272c-1.179,1.57-2.651,2.81-3.795,3.617c-1.148,0.81-1.953,1.26-1.953,1.26
		s0.681-0.635,1.586-1.667c0.901-1.028,1.973-2.505,2.657-4.112c0.356-0.78,0.609-1.581,0.787-2.345
		c-0.347,0.655-0.768,1.312-1.282,1.908c-1.014,1.293-3.021,3.185-5.11,4.159c3.629-3.319,4.067-7.127,4.098-8.144
		c0.002-0.058,0.011-0.182,0.022-0.349c-1.252,4.708-3.362,7.258-5.378,7.686c-1.198,0.252-2.847,0.371-3.889-0.477
		c-0.967-0.783-1.521-2.452-1.521-4.577l-0.022-5.636c-0.039-8.53-0.104-22.807,0.062-35.513c0.024-2.037-1.605-3.711-3.646-3.74
		c-2.03-0.169-3.718,1.609-3.739,3.646c-0.166,12.767-0.102,27.088-0.062,35.643l0.021,5.6c0,4.426,1.511,8.091,4.256,10.315
		c1.406,1.139,3.639,2.315,6.877,2.315c0.974,0,2.034-0.105,3.191-0.351c1.931-0.408,6.765-2.146,9.784-9.309
		C270.064,288.863,269.821,289.244,269.549,289.603"/>
	<path fill="#FFFFFF" d="M333.976,240.717c-1.97-0.45-3.972,0.779-4.433,2.767c-1.638,7.087-7.108,18.036-14.134,20.2
		c-2.669,0.821-4.667,0.761-5.94-0.185c-1.697-1.255-2.672-4.35-2.668-8.49c0-1.463,0.16-6.295,0.16-6.295l0.002-0.037
		c0.008-0.224,0.825-16.916,0.941-18.562c0.545-7.826,2.563-9.91,5.647-10.736c0.589-0.159,1.054-0.217,1.417-0.217
		c0.855,0,1.177,0.325,1.324,0.478c1.904,1.936,2.017,8.514,0.252,14.667c-1.146,3.999-4.131,5.529-6.877,6.054
		c0.557,0.013,1.157-0.025,1.788-0.171c1.048-0.229,2.185-0.78,3.044-1.29c0.86-0.513,1.44-0.928,1.44-0.928
		s-1.621,2.356-3.754,3.812c-0.71,0.525-1.521,0.89-2.285,1.147c0.807-0.007,1.719-0.101,2.638-0.376
		c1.357-0.372,2.678-1.073,3.633-1.663c0.956-0.594,1.57-1.044,1.57-1.044s-0.455,0.603-1.218,1.464
		c-0.766,0.854-1.872,1.967-3.256,2.838c-0.921,0.596-1.952,1.028-2.91,1.329c1.005-0.042,2.143-0.198,3.263-0.559
		c1.668-0.515,3.173-1.368,4.223-2.035c1.053-0.674,1.701-1.16,1.701-1.16s-0.49,0.639-1.348,1.581
		c-0.861,0.933-2.152,2.195-3.847,3.211c-0.249,0.152-0.517,0.279-0.777,0.415c4.567-1.571,8.452-4.944,10.069-10.593
		c2.026-7.054,2.694-17.019-2.08-21.877c-1.414-1.441-4.603-3.639-9.922-2.218c-8.94,2.396-10.632,10.535-11.107,17.358
		c-0.224,3.213-1.118,19.68-1.118,25.406c-0.004,6.697,1.954,11.689,5.665,14.43c1.511,1.114,3.809,2.192,7.059,2.192
		c1.582,0,3.39-0.256,5.441-0.887c11.274-3.473,17.462-18.259,19.161-25.595C337.199,243.162,335.962,241.18,333.976,240.717"/>
	<path fill="#FFFFFF" d="M250.687,222.786c-2.358,0-4.594,1.998-5.237,4.858c-0.728,3.229,0.848,6.334,3.518,6.935
		c0.304,0.069,0.608,0.103,0.913,0.103c2.357,0,4.593-1.998,5.236-4.858c0.729-3.229-0.846-6.334-3.517-6.935
		C251.296,222.819,250.99,222.786,250.687,222.786"/>
	<path fill="#FFFFFF" d="M151.408,209.194L151.408,209.194c-5.698,0-11.79-3.849-11.79-14.65c0-5.579,0.044-18.237,0.199-26.204
		c0.111-5.666,0.375-18.933,12.081-23.377c1.915-0.728,3.79-1.096,5.572-1.096c5.406,0,11.721,3.78,11.721,14.429
		c0,4.223-0.098,26.641-0.556,31.25c-0.984,9.914-5.186,16.402-12.15,18.757C154.744,208.895,153.034,209.194,151.408,209.194
		 M157.47,151.253c-0.884,0-1.875,0.206-2.946,0.613c-5.071,1.926-7.123,6.585-7.321,16.618c-0.159,7.913-0.199,20.506-0.199,26.06
		c0,4.818,1.482,7.264,4.404,7.264c0.818,0,1.731-0.17,2.708-0.502c5.071-1.713,6.697-7.739,7.17-12.489
		c0.371-3.714,0.519-23.073,0.519-30.521C161.805,155.083,161.051,151.253,157.47,151.253"/>
	<path fill="#FFFFFF" d="M109.957,176.014L109.957,176.014l2.601-0.046l1.748-0.031c-0.057-18.264,0.24-36.584,4.09-51.266
		c-1.339,3.386-2.339,6.624-2.339,6.624s0.216-3.663,0.797-7.457c0.18-1.266,0.377-2.527,0.561-3.65
		c-0.435,1.051-0.915,2.237-1.381,3.434c-1.428,3.557-2.542,7.239-2.542,7.239s0.253-3.855,0.846-7.686
		c0.184-1.284,0.387-2.563,0.575-3.702c-0.439,1.067-0.925,2.271-1.395,3.487c-0.706,1.813-1.377,3.651-1.846,5.065
		c-0.447,1.441-0.746,2.402-0.746,2.402s0.291-4.048,0.895-7.914c0.185-1.266,0.386-2.528,0.574-3.657
		c-5.182,16.303-5.541,36.826-5.475,57.212L109.957,176.014z"/>
	<path fill="#FFFFFF" d="M113.478,194.017l-1.353-13.366l-1.247,13.466l-1.354-13.405l-1.246,13.506l-1.338-13.268
		c0.002,0.277,0.003,0.555,0.004,0.831c0.026,4.566,0.047,9.071,0.018,13.452l-0.018,3.74c-0.126,27.226-0.353,77.906-27.52,90.168
		c-7.39,3.336-13.21,2.283-16.795,0.826c-4.223-1.728-6.957-4.66-7.79-6.802c-0.736-1.901-2.882-2.847-4.779-2.104
		c-1.9,0.74-2.842,2.878-2.102,4.779c1.742,4.483,6.293,8.68,11.876,10.96c2.564,1.049,5.94,1.951,9.971,1.951
		c3.708,0,7.967-0.766,12.655-2.882c31.495-14.213,31.737-67.981,31.87-96.864l0.018-3.722c0.023-3.453,0.012-6.996-0.005-10.571
		L113.478,194.017z"/>
	<path fill="#FFFFFF" d="M99.5,182.892c-1.406,0-2.744-0.804-3.365-2.164c-0.844-1.857-0.025-4.046,1.832-4.89l27.99-12.731
		c1.871-0.858,4.042-0.018,4.89,1.832c0.844,1.858,0.025,4.047-1.832,4.891l-27.989,12.73
		C100.529,182.787,100.01,182.892,99.5,182.892"/>
	<path fill="#FFFFFF" d="M187.559,194.188c-3.011,0-5.125-1.118-6.466-2.204c-3.152-2.546-4.754-6.967-4.754-13.134l0.037-39.71
		c0-2.042,1.651-3.693,3.692-3.693c2.042,0,3.693,1.651,3.693,3.693l-0.036,39.71c0,3.664,0.732,6.358,2.009,7.389
		c0.703,0.567,1.775,0.704,3.185,0.404c2.773-0.595,7.869-5.737,7.674-15.446c-0.04-2.041,1.58-3.725,3.617-3.769h0.076
		c2.005,0,3.653,1.605,3.693,3.618c0.256,12.882-6.769,21.368-13.51,22.817C189.419,194.09,188.449,194.188,187.559,194.188"/>
	<path fill="#FFFFFF" d="M222.983,141.298l-0.896-17.441h-0.146l-1.559,17.363l-0.896-17.363h-0.148l-1.556,17.284l-0.731-14.101
		c-0.067,21.37-0.306,35.362-0.666,37.82c-1.137,7.714-4.393,11.18-6.834,11.803c-1.094,0.278-2.63,0.422-3.763-0.454
		c-1.149-0.891-1.81-2.748-1.81-5.089l-0.022-5.636c-0.039-8.53-0.104-22.807,0.062-35.513c0.024-2.037-1.605-3.711-3.646-3.74
		h-0.047c-2.02,0-3.668,1.623-3.693,3.646c-0.166,12.767-0.101,27.088-0.061,35.643l0.021,5.6c0,4.71,1.659,8.591,4.667,10.924
		c1.893,1.468,4.2,2.222,6.7,2.222c1.11,0,2.257-0.148,3.423-0.447c6.293-1.609,10.895-8.295,12.309-17.885
		c0.534-3.64,0.707-23.196,0.751-40.945L222.983,141.298z"/>
	<path fill="#FFFFFF" d="M231.502,183.007c0-4.385,3.03-7.555,7.462-7.555c4.433,0,7.462,3.17,7.462,7.555
		c0,4.385-3.029,7.53-7.462,7.53C234.532,190.538,231.502,187.393,231.502,183.007 M244.28,183.007c0-3.527-2.193-5.792-5.316-5.792
		c-3.098,0-5.29,2.287-5.29,5.792c0,3.527,2.167,5.767,5.29,5.767C242.062,188.774,244.28,186.509,244.28,183.007"/>
	<polygon fill="#FFFFFF" points="248.013,188.562 250.159,188.562 250.159,177.428 248.013,177.428 248.013,175.737 
		259.622,175.737 259.622,180.05 257.692,180.05 257.692,177.453 252.258,177.453 252.258,182.412 257.858,182.412 257.858,184.15 
		252.258,184.15 252.258,188.562 254.615,188.562 254.615,190.252 248.013,190.252 	"/>
	<path fill="#FFFFFF" d="M258.131,156.263c-0.634,0.926-1.396,1.83-2.043,2.445c-0.643,0.62-1.124,0.971-1.124,0.971
		s1.402-1.993,1.902-4.024c0.381-1.356,0.584-2.633,0.677-3.332c-0.339,0.619-0.982,1.736-1.757,2.813
		c-1.121,1.634-2.687,2.727-2.687,2.727s1.03-1.58,1.422-3.335c0.287-1.141,0.46-2.304,0.546-2.978l-0.016-0.014
		c-0.335,0.592-0.935,1.602-1.61,2.473c-1.013,1.358-2.206,2.039-2.206,2.039s0.659-1.168,0.94-2.648
		c0.109-0.511,0.199-1.054,0.272-1.553c-1.121,2.967-2.813,5.25-5.243,6.016c-1.518,0.473-2.709,0.365-3.671-0.342
		c-1.36-0.999-2.204-3.102-2.204-5.489c0-2.366,0.021-14.808,0.458-27.589c0.198-5.839-1.168-9.781-4.176-12.056
		c-2.958-2.236-7.004-2.489-12.377-0.758c-0.195,0.061-0.344,0.094-0.448,0.112c-0.266-0.602-0.437-1.994-0.35-3.055
		c0.177-2.023-1.316-3.812-3.34-3.999c-2.019-0.17-3.83,1.313-4.018,3.339c-0.1,1.108-0.425,6.762,3.148,9.633
		c1.35,1.086,3.719,2.139,7.257,1.003c3.924-1.252,5.271-0.689,5.673-0.383c0.332,0.249,1.402,1.418,1.251,5.911
		c-0.443,12.9-0.465,25.454-0.465,27.842c0,4.767,1.95,9.045,5.222,11.443c1.858,1.363,4.036,2.056,6.362,2.056
		c1.266,0,2.575-0.206,3.895-0.621c4.632-1.46,8.075-5.266,10.11-10.899C259.168,154.649,258.692,155.439,258.131,156.263"/>
	<path fill="#FFFFFF" d="M222.608,274.049l-1.065,9.266l-1.343-10.9l-1.259,10.979l-1.343-10.931l-1.257,11.01l-1.119-9.124
		c0.006,2.278,0.025,4.597,0.055,6.983c0.295,24.495,0.631,52.258-22.089,65.018c-11.501,6.466-23.9,6.574-34.009,0.299
		c-9.525-5.915-14.858-16.225-14.267-27.586c0.425-8.24,4.551-15.835,11.313-20.837c6.845-5.064,15.429-6.791,23.532-4.779
		c0.246,0.062,0.492,0.099,0.736,0.109c0.489,0.021,0.968-0.056,1.414-0.218c0.222-0.081,0.438-0.185,0.64-0.306
		c0.405-0.243,0.765-0.563,1.054-0.947c0.29-0.384,0.508-0.83,0.632-1.325c0.498-1.977-0.707-3.981-2.687-4.476
		c-5.137-1.291-10.418-1.384-15.493-0.354c-0.416,0.085-0.83,0.188-1.243,0.288c-0.21,0.05-0.422,0.092-0.632,0.146
		c-4.408,1.146-8.626,3.148-12.417,5.96c-8.442,6.262-13.601,15.742-14.203,26.047c-0.006,0.104-0.019,0.206-0.025,0.31
		c-0.721,13.878,6.081,26.998,17.751,34.243c6.106,3.787,13.009,5.68,20.095,5.68c7.169,0,14.527-1.94,21.426-5.813
		c26.543-14.908,26.161-46.313,25.857-71.548C222.634,278.78,222.611,276.391,222.608,274.049"/>
	<path fill="#FFFFFF" d="M215.23,268.673l1.899-0.027l2.603-0.036l2.884-0.04c0.003-3.522-0.027-6.863-0.057-10.051
		c-0.159-16.766-0.261-29.289,4.905-43.359c-0.516,1.053-1.089,2.252-1.64,3.465c-0.785,1.722-1.511,3.457-1.988,4.747
		c-0.479,1.292-0.729,2.133-0.729,2.133s0.032-0.875,0.195-2.262c0.162-1.385,0.474-3.268,0.851-5.152
		c0.249-1.266,0.525-2.525,0.784-3.646c-0.504,1.033-1.06,2.201-1.592,3.388c-0.799,1.766-1.543,3.558-2.038,4.928
		c-0.498,1.368-0.766,2.31-0.766,2.31s0.05-0.975,0.232-2.438c0.181-1.463,0.511-3.404,0.9-5.334
		c0.259-1.295,0.544-2.582,0.812-3.726c-0.512,1.057-1.077,2.252-1.619,3.467c-0.812,1.81-1.573,3.661-2.089,5.109
		c-0.518,1.445-0.802,2.488-0.802,2.488s0.066-1.077,0.269-2.617c0.199-1.533,0.544-3.518,0.945-5.48
		c-4.271,13.641-4.169,25.989-4.019,42.05C215.204,261.784,215.233,265.137,215.23,268.673"/>
	<path fill="#FFFFFF" d="M80.408,240.32c-0.054,0-0.105,0-0.159-0.004c-22.179-0.923-38.974-12.096-47.294-31.451
		c-11.414-26.554-6.21-62.308,31.159-82.32c17.776-9.521,36.778-13.239,53.548-16.521c12.511-2.449,24.329-4.761,33.324-9.113
		c8.06-3.899,12.874-8.613,14.31-14.011c1.72-6.477-2.067-12.107-2.106-12.165c-1.147-1.673-0.736-3.97,0.934-5.132
		c1.669-1.157,3.952-0.761,5.121,0.902c0.234,0.335,5.766,8.356,3.22,18.169c-1.976,7.624-8.121,13.978-18.263,18.887
		c-9.856,4.767-22.129,7.169-35.122,9.712c-16.258,3.181-34.683,6.783-51.478,15.785c-35.516,19.02-37.208,51.153-27.86,72.893
		c7.238,16.843,21.354,26.176,40.817,26.987c2.038,0.083,3.621,1.806,3.535,3.844C84.011,238.767,82.377,240.32,80.408,240.32"/>
	<path fill="#FFFFFF" d="M328.695,167.536c-3.505,0-6.989-0.559-10.224-1.702c-5.951-2.099-14.04-7.177-18.779-19.432
		c-3.897-10.087-3.668-26.564-3.404-45.646l0.029-2.128c0.057-4.288-0.916-7.339-2.673-8.374c-1.334-0.779-3.365-0.537-5.442,0.646
		c-2.791,1.594-5.607,5.013-5.607,9.048c0,2.041-1.652,3.693-3.693,3.693s-3.693-1.652-3.693-3.693c0-6.152,3.661-12.222,9.33-15.46
		c4.411-2.521,9.214-2.741,12.857-0.595c2.946,1.734,6.43,5.716,6.308,14.836l-0.029,2.132c-0.245,17.548-0.473,34.127,2.906,42.88
		c2.95,7.624,7.909,12.857,14.348,15.129c7.691,2.708,15.445,0.779,20.138-1.933c10.3-5.947,12.911-19.9,8.367-28.404
		c-2.057-3.841-6.355-8.248-15.147-7.332c-2.103,0.162-3.841-1.273-4.05-3.3c-0.206-2.03,1.273-3.841,3.3-4.05
		c9.893-0.999,18.062,3.073,22.41,11.198c6.149,11.504,3.065,30.056-11.187,38.286C339.954,166.104,334.297,167.536,328.695,167.536
		"/>
	<path fill="#FFFFFF" d="M257.011,104.643L257.011,104.643l1.696-0.032l-0.001-0.001l3.026-1.003
		c0.021-5.953,0.047-12.868,0.079-20.926c0.007-2.042-1.639-3.7-3.68-3.708h-0.014c-2.034,0-3.687,1.646-3.693,3.679
		c-0.034,8.568-0.061,15.84-0.082,22.042L257.011,104.643z"/>
	<path fill="#FFFFFF" d="M279.255,52.859h-0.011c-2.034,0-3.687,1.645-3.693,3.682c-0.061,20.427-0.451,74.992-1.511,82.241
		c-0.757,7.249-4.122,10.523-7.019,11.172c-1.658,0.368-2.932,0.217-3.778-0.465c-1.01-0.811-1.591-2.488-1.591-4.602l-0.003-2.344
		c-0.007-3.693-0.017-9.512,0.067-34.396l-1.179,11.144l-1.357-10.878l-1.243,10.986l-1.357-10.922l-1.241,11.03l-1.019-8.208
		c-0.072,22.244-0.063,27.722-0.058,31.256l0.003,2.333c0,4.433,1.547,8.115,4.357,10.365c1.406,1.125,3.617,2.283,6.773,2.283
		c0.983,0,2.062-0.112,3.233-0.375c5.403-1.204,11.592-6.466,12.735-17.459c1.334-9.07,1.561-80.116,1.571-83.138
		C282.944,54.525,281.296,52.866,279.255,52.859"/>
	<path fill="#FFFFFF" d="M250.288,108.946c-1.402,0-2.745-0.804-3.365-2.164c-0.844-1.857-0.024-4.046,1.832-4.89l18.418-8.381
		c1.861-0.852,4.048-0.018,4.892,1.832c0.843,1.857,0.024,4.046-1.833,4.89l-18.417,8.381
		C251.319,108.841,250.796,108.946,250.288,108.946"/>
	<path fill="#FFFFFF" d="M276.572,289.49c-2.06,0-4.004-0.595-5.681-1.771c-3.185-2.226-5.157-6.318-5.28-10.942
		c-0.133-5.153-0.187-24.267,0.036-41.34c0.025-2.038,1.619-3.628,3.74-3.646c2.041,0.029,3.671,1.702,3.646,3.74
		c-0.224,16.99-0.169,35.959-0.036,41.052c0.058,2.192,0.913,4.234,2.128,5.085c0.472,0.331,1.272,0.715,2.874,0.181
		c3.711-1.244,6.344-5.337,7.415-11.522c1.677-9.673,0.399-23.604-1.042-30.41c-1.307-6.155-4.858-7.663-5.01-7.725
		c-1.857-0.753-2.82-2.867-2.113-4.742c0.7-1.868,2.716-2.874,4.62-2.204c2.784,0.968,7.963,4.822,9.729,13.14
		c1.457,6.873,3.04,21.963,1.094,33.204c-2.1,12.116-8.635,16.016-12.346,17.264C279.07,289.277,277.802,289.49,276.572,289.49"/>
	<g>
		<defs>
			<rect id="SVGID_1_" x="1209.998" y="-340" width="1919.999" height="1080"/>
		</defs>
		<clipPath id="SVGID_2_">
			<use xlink:href="#SVGID_1_"  overflow="visible"/>
		</clipPath>
		<path clip-path="url(#SVGID_2_)" d="M2732.312-214.593c229.143,503.799,6.49,1097.964-497.307,1327.108
			c-503.797,229.143-1097.963,6.49-1327.105-497.307c-229.144-503.796-6.493-1097.963,497.304-1327.105
			C1909.002-941.04,2503.167-718.39,2732.312-214.593"/>
		<path clip-path="url(#SVGID_2_)" fill="#FFFFFF" d="M1384.868,170.211l-6.807-67.238l-6.272,67.743l-6.812-67.438l-6.267,67.945
			l-6.729-66.747c0.008,1.394,0.014,2.792,0.02,4.184c0.128,22.968,0.236,45.627,0.091,67.67L1352,195.144
			c-0.635,136.953-1.777,391.903-138.441,453.586c-37.172,16.781-66.454,11.483-84.487,4.154
			c-21.243-8.69-34.995-23.439-39.187-34.216c-3.701-9.562-14.496-14.314-24.039-10.577c-9.56,3.719-14.295,14.478-10.577,24.038
			c8.766,22.551,31.66,43.668,59.742,55.134c12.9,5.279,29.881,9.815,50.163,9.815c18.65,0,40.077-3.848,63.661-14.496
			c158.434-71.498,159.649-341.977,160.319-487.275l0.092-18.723c0.113-17.369,0.058-35.195-0.027-53.176L1384.868,170.211z"/>
		<path clip-path="url(#SVGID_2_)" fill="#FFFFFF" d="M1218.512,403.141c-0.271,0-0.525,0-0.798-0.018
			c-111.574-4.645-196.062-60.848-237.914-158.216c-57.42-133.58-31.241-313.44,156.746-414.11
			c89.422-47.895,185.013-66.599,269.373-83.108c62.934-12.319,122.386-23.948,167.632-45.845
			c40.547-19.611,64.767-43.323,71.987-70.481c8.653-32.583-10.396-60.902-10.596-61.193c-5.769-8.417-3.7-19.974,4.699-25.816
			c8.4-5.823,19.884-3.828,25.763,4.536c1.179,1.687,29.009,42.035,16.199,91.399c-9.94,38.352-40.854,70.319-91.87,95.01
			c-49.583,23.984-111.319,36.066-176.686,48.856c-81.783,16.002-174.471,34.125-258.958,79.408
			c-178.663,95.681-187.171,257.326-140.147,366.686c36.411,84.723,107.419,131.674,205.331,135.756
			c10.25,0.418,18.215,9.089,17.779,19.34C1236.636,395.322,1228.418,403.141,1218.512,403.141"/>
	</g>
</g>
</svg>
